# xmcd
#
# Track frame offsets:
#	150
#	15806
#	35589
#	50567
#	66247
#	83658
#	96239
#	116583
#	138131
#	158689
#
# Disc length: 2732 seconds
#
# Revision: 2
# Processed by: cddbd v1.5.1PL0 Copyright (c) Steve Scherf et al.
# Submitted via: CDmax 2.0
#
DISCID=740aaa0a
DTITLE=Beth Champion Mason - All I Have
DYEAR=2002
DGENRE=Rock
TTITLE0=I Am Your Child
TTITLE1=All I Have
TTITLE2=Psalm 107
TTITLE3=Ruler of the Universe
TTITLE4=Good Enough
TTITLE5=Carry Me
TTITLE6=Beauty From the Ashes
TTITLE7=What Have I to Offer?
TTITLE8=I'll Come Running
TTITLE9=Just Beyond
EXTD=
EXTT0=
EXTT1=
EXTT2=
EXTT3=
EXTT4=
EXTT5=
EXTT6=
EXTT7=
EXTT8=
EXTT9=
PLAYORDER=
